<?xml version="1.0" standalone="no"?><!DOCTYPE svg PUBLIC "-//W3C//DTD SVG 1.1//EN" "http://www.w3.org/Graphics/SVG/1.1/DTD/svg11.dtd"><svg t="1520975992989" class="icon" style="" viewBox="0 0 1024 1024" version="1.1" xmlns="http://www.w3.org/2000/svg" p-id="1929" xmlns:xlink="http://www.w3.org/1999/xlink" width="32" height="32"><defs><style type="text/css"></style></defs><path d="M272.544 357.152l0 566.272-188.576 0 0-566.272 188.576 0zM284.544 182.272q0.576 41.728-28.864 69.728t-77.44 28l-1.152 0q-46.848 0-75.424-28t-28.576-69.728q0-42.272 29.44-70.016t76.864-27.712 76 27.712 29.152 70.016zM950.848 598.848l0 324.576-188 0 0-302.848q0-60-23.136-94.016t-72.288-34.016q-36 0-60.288 19.712t-36.288 48.864q-6.272 17.152-6.272 46.272l0 316-188 0q1.152-228 1.152-369.728t-0.576-169.152l-0.576-27.424 188 0 0 82.272-1.152 0q11.424-18.272 23.424-32t32.288-29.728 49.728-24.864 65.44-8.864q97.728 0 157.152 64.864t59.424 190.016z" p-id="1930"></path></svg>